<svg width="290" height="39" viewBox="0 0 290 39" fill="none" xmlns="http://www.w3.org/2000/svg">
<path d="M5.14 28.416C5.052 28.856 4.788 29.2373 4.348 29.56C3.93733 29.8533 3.35067 30 2.588 30C1.94267 30 1.42933 29.824 1.048 29.472C0.696 29.12 0.505334 28.7533 0.476 28.372C0.652 27.14 0.74 25.292 0.74 22.828C0.74 21.3613 0.652 19.1027 0.476 16.052C0.270667 13.1773 0.168 10.6253 0.168 8.396C0.168 7.19333 0.226667 5.96133 0.344 4.7C0.344 4.28933 0.578667 3.84933 1.048 3.38C1.54667 2.91066 2.22133 2.61733 3.072 2.5C5.85867 2.20667 9.276 2.06 13.324 2.06H14.732C15.788 2.06 16.8147 2.25066 17.812 2.632C18.8387 3.01333 19.352 3.67333 19.352 4.612C19.352 5.228 19.2053 5.712 18.912 6.064C18.6187 6.416 18.076 6.592 17.284 6.592C16.9027 6.592 16.4627 6.56267 15.964 6.504C15.4653 6.44533 15.1133 6.40133 14.908 6.372C13.7933 6.196 12.928 6.108 12.312 6.108C8.90933 6.108 6.34267 6.34267 4.612 6.812C4.612 7.78 4.64133 9.34933 4.7 11.52L4.744 14.336C6.26933 14.336 7.63333 14.2773 8.836 14.16C10.0387 14.0133 10.728 13.9253 10.904 13.896C12.4293 13.72 13.4413 13.632 13.94 13.632C14.644 13.632 15.2307 13.7933 15.7 14.116C16.1987 14.4093 16.448 14.8787 16.448 15.524C16.448 16.9907 15.4213 17.724 13.368 17.724C12.8693 17.724 12.4293 17.7387 12.048 17.768C11.6667 17.7973 11.344 17.8267 11.08 17.856C10.024 17.9733 9.188 18.032 8.572 18.032C7.22267 18.032 6.07867 18.076 5.14 18.164C5.14 19.2493 5.184 20.3933 5.272 21.596C5.272 21.9773 5.28667 22.564 5.316 23.356C5.37467 24.148 5.404 24.8667 5.404 25.512C5.404 26.0693 5.38933 26.5827 5.36 27.052C5.33067 27.5213 5.25733 27.976 5.14 28.416ZM110.706 2.456C110.706 2.74933 110.633 3.556 110.486 4.876C110.163 8.10267 110.002 11.3733 110.002 14.688C110.002 17.592 110.046 19.8067 110.134 21.332C110.222 22.8573 110.442 24.0307 110.794 24.852C111.146 25.644 111.689 26.04 112.422 26.04C113.83 26.04 114.534 26.5093 114.534 27.448C114.534 28.064 114.226 28.592 113.61 29.032C112.994 29.4427 112.319 29.648 111.586 29.648C110.706 29.648 109.885 29.4427 109.122 29.032C108.359 28.6213 107.758 27.9907 107.318 27.14C106.702 28.0493 105.807 28.7827 104.634 29.34C103.49 29.868 102.375 30.132 101.29 30.132C99.618 30.132 98.1366 29.78 96.846 29.076C95.5553 28.372 94.558 27.4187 93.854 26.216C93.15 24.984 92.798 23.6347 92.798 22.168C92.798 20.76 92.9593 19.4107 93.282 18.12C93.634 16.8 94.1033 15.7147 94.69 14.864C95.482 13.7493 96.538 12.8693 97.858 12.224C99.2073 11.5493 100.527 11.212 101.818 11.212C102.61 11.212 103.358 11.3733 104.062 11.696C104.766 11.9893 105.382 12.356 105.91 12.796C105.91 10.8307 105.895 9.59867 105.866 9.1V8.176C105.866 5.448 106.042 3.45333 106.394 2.192C106.717 0.959999 107.494 0.343999 108.726 0.343999C109.401 0.343999 109.899 0.490665 110.222 0.783998C110.545 1.07733 110.706 1.63466 110.706 2.456ZM97.154 22.08C97.154 23.4293 97.5353 24.5147 98.298 25.336C99.09 26.1573 100.029 26.568 101.114 26.568C102.669 26.568 103.813 26.084 104.546 25.116C105.309 24.148 105.69 22.9013 105.69 21.376L105.646 17.02C104.502 15.7587 103.314 15.128 102.082 15.128C101.231 15.128 100.425 15.348 99.662 15.788C98.9286 16.1987 98.342 16.8293 97.902 17.68C97.4033 18.648 97.154 20.1147 97.154 22.08ZM131.023 38.976C129.41 38.976 128.237 38.6827 127.503 38.096C126.799 37.5387 126.447 36.9227 126.447 36.248C126.447 35.2213 126.931 34.708 127.899 34.708C128.193 34.708 128.574 34.796 129.043 34.972C129.513 35.1773 129.953 35.28 130.363 35.28C131.009 35.28 131.537 34.8547 131.947 34.004C132.358 33.1533 132.769 31.7747 133.179 29.868C132.27 28.812 131.155 27.14 129.835 24.852C128.545 22.564 127.43 20.32 126.491 18.12C125.553 15.8907 125.083 14.3067 125.083 13.368C125.083 12.6347 125.333 12.092 125.831 11.74C126.359 11.388 126.961 11.212 127.635 11.212C128.163 11.212 128.574 11.3147 128.867 11.52C129.161 11.696 129.366 12.0333 129.483 12.532C130.187 15.0253 130.935 17.2107 131.727 19.088C132.549 20.9653 133.59 23.004 134.851 25.204C135.35 24.06 136.01 22.1093 136.831 19.352C137.741 16.272 138.503 14.0867 139.119 12.796C139.383 12.268 139.706 11.8427 140.087 11.52C140.498 11.1973 140.953 11.036 141.451 11.036C141.95 11.036 142.478 11.2267 143.035 11.608C143.622 11.96 143.915 12.3853 143.915 12.884C143.915 13.1773 143.813 13.5293 143.607 13.94C142.463 16.58 141.451 19.0733 140.571 21.42C139.721 23.7373 138.899 26.2893 138.107 29.076C137.638 30.6307 137.139 32.112 136.611 33.52C136.113 34.928 135.761 35.7933 135.555 36.116C134.969 36.9373 134.309 37.612 133.575 38.14C132.842 38.6973 131.991 38.976 131.023 38.976ZM176.535 29.208C175.244 29.0907 174.379 28.7827 173.939 28.284C173.499 27.756 173.279 27.2133 173.279 26.656C173.279 26.304 173.352 25.908 173.499 25.468C173.646 25.028 173.792 24.72 173.939 24.544C175.318 22.8427 177.899 19.8507 181.683 15.568C185.467 11.2853 188.004 8.42533 189.295 6.988L187.579 6.9C186.024 6.812 184.719 6.768 183.663 6.768C183.282 6.768 182.314 6.84133 180.759 6.988C179.791 7.13467 178.911 7.208 178.119 7.208C176.975 7.208 176.139 7.10533 175.611 6.9C175.112 6.66533 174.804 6.40133 174.687 6.108C174.599 5.81467 174.555 5.404 174.555 4.876C174.555 4.49466 174.702 4.11333 174.995 3.732C175.318 3.32133 175.699 3.08667 176.139 3.028C177.312 2.88133 178.882 2.74933 180.847 2.632C182.812 2.48533 184.411 2.412 185.643 2.412C189.368 2.412 191.994 2.60267 193.519 2.984C193.9 3.10133 194.223 3.39467 194.487 3.864C194.751 4.33333 194.883 4.7 194.883 4.964C194.883 5.316 194.824 5.68267 194.707 6.064C194.619 6.44533 194.487 6.768 194.311 7.032C193.93 7.70667 193.05 8.93867 191.671 10.728C190.292 12.488 188.826 14.2627 187.271 16.052C185.628 17.988 183.942 19.9093 182.211 21.816C180.51 23.7227 179.41 24.94 178.911 25.468C179.732 25.4387 180.994 25.3653 182.695 25.248C185.452 25.072 187.52 24.984 188.899 24.984C189.984 24.984 191.187 25.0573 192.507 25.204C193.856 25.3507 194.868 25.644 195.543 26.084C195.748 26.2013 195.939 26.5387 196.115 27.096C196.32 27.6533 196.423 28.108 196.423 28.46C196.423 28.8413 196.232 29.1787 195.851 29.472C195.499 29.7653 195 29.912 194.355 29.912C194.296 29.912 193.651 29.8533 192.419 29.736C189.867 29.4427 188.18 29.296 187.359 29.296L184.235 29.34C182.827 29.3987 181.756 29.428 181.023 29.428C179.234 29.428 177.738 29.3547 176.535 29.208ZM259.566 26.612C259.712 26.6707 259.947 26.744 260.27 26.832C260.592 26.92 260.827 27.008 260.974 27.096C261.12 27.184 261.194 27.316 261.194 27.492C261.223 28.196 260.959 28.7827 260.402 29.252C259.874 29.692 259.243 29.912 258.51 29.912C257.366 29.912 256.471 29.604 255.826 28.988C255.18 28.372 254.711 27.4333 254.418 26.172C254.3 25.6733 254.242 24.984 254.242 24.104C254.242 23.6053 254.271 22.7987 254.33 21.684C254.388 20.5107 254.418 19.572 254.418 18.868C254.418 17.8413 254.124 16.9467 253.538 16.184C252.98 15.392 252.188 14.996 251.162 14.996C250.546 14.996 249.9 15.1867 249.226 15.568C248.551 15.92 248.082 16.36 247.818 16.888C247.378 17.7387 247.07 18.6627 246.894 19.66C246.571 21.42 246.41 23.2533 246.41 25.16C246.41 26.0693 246.424 26.7733 246.454 27.272C246.454 27.3893 246.454 27.624 246.454 27.976C246.483 28.2987 246.454 28.6067 246.366 28.9C246.307 29.164 246.19 29.4133 246.014 29.648C245.867 29.7947 245.632 29.912 245.31 30C245.016 30.1173 244.738 30.176 244.474 30.176C244.063 30.176 243.55 30 242.934 29.648C242.318 29.296 241.966 28.9 241.878 28.46L241.834 27.712C241.834 27.448 241.863 27.14 241.922 26.788C242.274 24.7347 242.45 22.9453 242.45 21.42C242.45 20.7453 242.435 20.2173 242.406 19.836L242.362 17.768C242.362 17.064 242.186 16.3893 241.834 15.744C241.482 15.0693 241.071 14.732 240.602 14.732C240.455 14.732 240.25 14.7907 239.986 14.908C239.722 14.996 239.502 15.04 239.326 15.04C239.032 15.04 238.71 14.8933 238.358 14.6C238.035 14.3067 237.874 13.9987 237.874 13.676C237.874 13.06 238.079 12.5613 238.49 12.18C238.93 11.828 239.355 11.5493 239.766 11.344C240.206 11.1387 240.704 11.036 241.262 11.036C241.731 11.036 242.112 11.08 242.406 11.168C242.699 11.256 243.095 11.4467 243.594 11.74C243.858 11.8867 244.166 12.2093 244.518 12.708C244.87 13.2067 245.163 13.9107 245.398 14.82C246.16 13.412 247.099 12.4293 248.214 11.872C249.358 11.2853 250.81 10.992 252.57 10.992C253.244 10.992 253.963 11.212 254.726 11.652C255.518 12.092 256.192 12.6053 256.75 13.192C257.278 13.8373 257.718 14.644 258.07 15.612C258.422 16.5507 258.598 17.4013 258.598 18.164C258.598 18.604 258.568 19.3227 258.51 20.32C258.422 21.112 258.378 21.948 258.378 22.828C258.378 24.8813 258.774 26.1427 259.566 26.612ZM272.828 20.672C272.828 19.5573 273.034 18.4427 273.444 17.328C273.855 16.184 274.398 15.1427 275.072 14.204C275.747 13.2653 276.818 12.5027 278.284 11.916C279.751 11.3 281.056 10.992 282.2 10.992C283.374 10.992 284.562 11.1533 285.764 11.476C286.996 11.7987 287.847 12.2973 288.316 12.972C289.402 14.4973 289.944 15.9933 289.944 17.46C289.944 18.252 289.768 18.9267 289.416 19.484C289.094 20.0413 288.624 20.6427 288.008 21.288C287.51 21.816 286.718 22.168 285.632 22.344C284.576 22.52 283.52 22.608 282.464 22.608C281.79 22.608 280.968 22.5493 280 22.432C279.032 22.2853 278.094 22.1093 277.184 21.904C277.243 22.4907 277.39 23.0627 277.624 23.62C277.859 24.1773 278.138 24.6027 278.46 24.896C279.047 25.4533 279.648 25.8053 280.264 25.952C280.91 26.0987 281.731 26.172 282.728 26.172C283.784 26.172 284.767 25.996 285.676 25.644C286.41 25.38 287.011 25.248 287.48 25.248C288.038 25.248 288.463 25.424 288.756 25.776C289.05 26.0987 289.196 26.524 289.196 27.052C289.196 27.7853 288.771 28.3867 287.92 28.856C287.07 29.3253 286.087 29.6773 284.972 29.912C283.887 30.1173 283.007 30.22 282.332 30.22C280.954 30.22 279.619 29.9707 278.328 29.472C277.038 28.9733 275.967 28.2693 275.116 27.36C274.412 26.5387 273.855 25.556 273.444 24.412C273.034 23.2387 272.828 21.992 272.828 20.672ZM282.42 14.732C281.775 14.732 281.13 14.864 280.484 15.128C279.839 15.3627 279.311 15.7 278.9 16.14C278.372 16.6973 278.006 17.152 277.8 17.504C277.624 17.8267 277.507 18.2813 277.448 18.868C278.182 19.1027 279.707 19.22 282.024 19.22C283.286 19.22 284.254 19.0293 284.928 18.648C285.632 18.2667 285.984 17.768 285.984 17.152C285.984 16.536 285.603 15.9787 284.84 15.48C284.078 14.9813 283.271 14.732 282.42 14.732Z" fill="white"/>
<path d="M48.1146 15.876C48.3493 16.2867 48.5399 16.888 48.6866 17.68C48.8333 18.4427 48.9066 19.132 48.9066 19.748C48.9066 20.892 48.6573 22.52 48.1586 24.632C46.1346 28.328 43.1426 30.176 39.1826 30.176C37.7159 30.176 36.2199 29.692 34.6946 28.724C33.1693 27.756 32.1133 26.6413 31.5266 25.38C30.7346 22.8573 30.3386 21.2587 30.3386 20.584C30.3386 19.4107 30.5879 18.164 31.0866 16.844C31.6146 15.524 32.2746 14.38 33.0666 13.412C33.5653 12.7373 34.4599 12.1653 35.7506 11.696C37.0413 11.1973 38.2146 10.948 39.2706 10.948C41.3239 10.948 43.0693 11.344 44.5066 12.136C45.9439 12.8987 47.1466 14.1453 48.1146 15.876ZM44.2866 22.96C44.4333 22.5787 44.5066 21.596 44.5066 20.012C44.5066 19.1613 44.3453 18.3253 44.0226 17.504C43.7293 16.6827 43.2893 15.9787 42.7026 15.392C42.6439 15.3333 42.4826 15.2453 42.2186 15.128C41.9546 14.9813 41.5879 14.8493 41.1186 14.732C40.6786 14.5853 40.1653 14.512 39.5786 14.512C37.9359 14.512 36.7333 15.172 35.9706 16.492C35.2079 17.812 34.8266 19.308 34.8266 20.98C34.8266 21.2733 34.8999 21.8307 35.0466 22.652C35.2226 23.4733 35.3693 23.9867 35.4866 24.192C35.5746 24.3973 35.7946 24.6907 36.1466 25.072C36.5279 25.424 36.9826 25.7467 37.5106 26.04C38.0679 26.304 38.6399 26.436 39.2266 26.436C40.5466 26.436 41.6026 26.128 42.3946 25.512C43.1866 24.8667 43.8173 24.016 44.2866 22.96ZM79.3422 15.876C79.5769 16.2867 79.7676 16.888 79.9142 17.68C80.0609 18.4427 80.1342 19.132 80.1342 19.748C80.1342 20.54 80.0462 21.42 79.8702 22.388C79.6942 23.356 79.5329 24.104 79.3862 24.632C77.3622 28.328 74.3702 30.176 70.4102 30.176C68.9436 30.176 67.4476 29.692 65.9222 28.724C64.3969 27.756 63.3409 26.6413 62.7542 25.38C61.9622 22.8867 61.5662 21.288 61.5662 20.584C61.5662 19.4107 61.8156 18.164 62.3142 16.844C62.8422 15.524 63.5022 14.38 64.2942 13.412C64.8222 12.7373 65.7316 12.1653 67.0222 11.696C68.3129 11.1973 69.4862 10.948 70.5422 10.948C72.5956 10.948 74.3262 11.344 75.7342 12.136C77.1716 12.8987 78.3742 14.1453 79.3422 15.876ZM75.5142 22.96C75.6609 22.6667 75.7342 21.684 75.7342 20.012C75.7342 19.1613 75.5729 18.3253 75.2502 17.504C74.9569 16.6827 74.5169 15.9787 73.9302 15.392C73.8716 15.3333 73.7102 15.2453 73.4462 15.128C73.1822 14.9813 72.8156 14.8493 72.3462 14.732C71.9062 14.5853 71.3929 14.512 70.8062 14.512C69.1636 14.512 67.9609 15.172 67.1982 16.492C66.4356 17.812 66.0542 19.308 66.0542 20.98C66.0542 21.244 66.1422 21.7867 66.3182 22.608C66.4942 23.4293 66.6262 23.9573 66.7142 24.192C66.9489 24.6027 67.4182 25.0867 68.1222 25.644C68.8556 26.172 69.6476 26.436 70.4982 26.436C71.8182 26.436 72.8596 26.128 73.6222 25.512C74.4142 24.8667 75.0449 24.016 75.5142 22.96Z" fill="#FF0A0A"/>
<path d="M225.61 15.876C225.845 16.2867 226.035 16.888 226.182 17.68C226.329 18.4427 226.402 19.132 226.402 19.748C226.402 20.892 226.153 22.52 225.654 24.632C223.63 28.328 220.638 30.176 216.678 30.176C215.211 30.176 213.715 29.692 212.19 28.724C210.665 27.756 209.609 26.6413 209.022 25.38C208.23 22.8573 207.834 21.2587 207.834 20.584C207.834 19.4107 208.083 18.164 208.582 16.844C209.11 15.524 209.77 14.38 210.562 13.412C211.061 12.7373 211.955 12.1653 213.246 11.696C214.537 11.1973 215.71 10.948 216.766 10.948C218.819 10.948 220.565 11.344 222.002 12.136C223.439 12.8987 224.642 14.1453 225.61 15.876ZM221.782 22.96C221.929 22.5787 222.002 21.596 222.002 20.012C222.002 19.1613 221.841 18.3253 221.518 17.504C221.225 16.6827 220.785 15.9787 220.198 15.392C220.139 15.3333 219.978 15.2453 219.714 15.128C219.45 14.9813 219.083 14.8493 218.614 14.732C218.174 14.5853 217.661 14.512 217.074 14.512C215.431 14.512 214.229 15.172 213.466 16.492C212.703 17.812 212.322 19.308 212.322 20.98C212.322 21.2733 212.395 21.8307 212.542 22.652C212.718 23.4733 212.865 23.9867 212.982 24.192C213.07 24.3973 213.29 24.6907 213.642 25.072C214.023 25.424 214.478 25.7467 215.006 26.04C215.563 26.304 216.135 26.436 216.722 26.436C218.042 26.436 219.098 26.128 219.89 25.512C220.682 24.8667 221.313 24.016 221.782 22.96Z" fill="#FF0909"/>
</svg>
